<svg width="260" height="65" viewBox="0 0 260 65" fill="none" xmlns="http://www.w3.org/2000/svg">
<g clip-path="url(#clip0_50:5502)">
<path d="M43.1881 15.5508C40.8848 16.2555 38.5814 16.9728 36.2693 17.6428C36.1326 17.6839 35.836 17.4247 35.74 17.2288C34.8297 15.3675 33.6897 13.7085 32.2472 12.2959C26.8669 7.02486 18.7121 7.40091 13.5615 11.8282C10.0658 14.8335 8.20447 18.8278 7.77113 23.6122C7.34071 28.3555 8.36733 32.6911 11.1593 36.4169C14.2071 40.4839 18.2293 42.4274 23.0338 42.3484C28.8067 42.2567 32.9801 39.3084 35.6382 33.7719C35.7022 33.6392 35.7749 33.5128 35.8651 33.3421C38.2964 34.0531 40.7161 34.761 43.3161 35.5226C42.4494 37.1184 41.7253 38.6953 40.7975 40.1142C37.293 45.4769 32.5758 48.934 26.5702 49.9421C18.4096 51.3136 11.3541 48.7097 5.85458 41.9913C-1.92215 32.4984 -1.94542 18.6382 5.75279 9.06944C10.8074 2.79034 17.3161 -0.0979888 24.9707 0.736276C33.6344 1.6843 39.5208 6.96482 43.1881 15.3833C43.1968 15.4023 43.1881 15.4276 43.1881 15.5508Z" fill="#F7EBDA"/>
<path d="M89.9996 17.7882C89.9996 16.2018 89.9996 14.647 89.9996 13.0544C92.46 13.0544 94.8709 13.0544 97.3081 13.0544C97.3081 25.325 97.3081 37.5577 97.3081 49.841C94.8942 49.841 92.4687 49.841 89.985 49.841C89.985 48.2736 89.985 46.722 89.985 45.1735C89.9298 45.1356 89.8745 45.0977 89.8192 45.0598C89.7233 45.2178 89.6477 45.3916 89.5313 45.5275C86.2624 49.4365 82.1298 50.8491 77.4009 50.3403C69.662 49.5092 63.3016 42.6265 62.3273 33.7782C61.3298 24.7214 66.0644 16.0849 73.8993 13.3325C79.079 11.5122 83.9678 12.1506 88.2808 16.0438C88.8566 16.5684 89.3859 17.1656 89.9996 17.7882ZM69.0367 31.4777C69.0658 37.9748 73.8819 43.2554 79.7508 43.2238C85.5877 43.1922 90.4998 37.801 90.4882 31.4398C90.4765 24.9932 85.5819 19.6274 79.7217 19.6368C73.8063 19.6432 69.0076 24.9616 69.0367 31.4777Z" fill="#F7EBDA"/>
<path d="M170.815 13.0165C171.324 13.0165 171.757 13.0165 172.191 13.0165C174.151 13.0165 176.111 13.0323 178.071 13.0038C178.525 12.9975 178.723 13.1587 178.891 13.6201C182.061 22.2661 185.252 30.9058 188.439 39.5455C188.512 39.7414 188.593 39.9373 188.71 40.2344C188.835 39.9152 188.931 39.694 189.012 39.4696C192.028 30.8963 195.05 22.3261 198.051 13.7496C198.24 13.2061 198.464 12.9944 199.028 13.0038C201.366 13.0481 203.705 13.0228 206.151 13.0228C206.063 13.3072 206.011 13.5253 205.935 13.7307C199.746 30.4823 193.561 47.2371 187.357 63.9856C187.279 64.1973 187.04 64.4881 186.874 64.4881C184.455 64.5197 182.035 64.5102 179.522 64.5102C179.61 64.2416 179.674 64.0299 179.749 63.8213C181.398 59.3276 183.047 54.8308 184.711 50.3435C184.879 49.8885 184.879 49.5092 184.702 49.0542C180.156 37.3144 175.625 25.5684 171.091 13.8223C171.007 13.5821 170.931 13.342 170.815 13.0165Z" fill="#F7EBDA"/>
<path d="M166.804 41.9092C166.804 44.5321 166.804 47.0507 166.804 49.6957C165.478 49.958 164.155 50.274 162.817 50.4762C160.7 50.7954 158.58 50.7385 156.509 50.1097C152.376 48.8551 149.98 45.8404 149.195 41.312C148.988 40.1238 148.93 38.8945 148.924 37.6842C148.898 32.075 148.913 26.4658 148.913 20.8598C148.913 20.6039 148.913 20.3479 148.913 20.0161C146.772 20.0161 144.684 20.0161 142.546 20.0161C142.546 17.6713 142.546 15.4024 142.546 13.0323C144.649 13.0323 146.752 13.0323 148.913 13.0323C148.913 12.1791 148.913 11.4206 148.913 10.6654C148.913 8.68716 148.904 6.70894 148.924 4.73072C148.927 4.52216 149.049 4.17455 149.183 4.1303C151.472 3.37188 153.772 2.64822 156.14 1.89612C156.14 5.62503 156.14 9.28758 156.14 13.0133C159.63 13.0133 163.061 13.0133 166.534 13.0133C166.534 15.3486 166.534 17.6207 166.534 19.975C163.096 19.975 159.65 19.975 156.175 19.975C156.157 20.2247 156.137 20.3921 156.137 20.5596C156.134 26.2984 156.134 32.0371 156.137 37.7758C156.137 39.931 156.835 41.6848 158.783 42.5002C159.583 42.8351 160.49 42.9489 161.357 42.9994C162.971 43.0942 164.53 42.6645 166.069 42.162C166.292 42.0862 166.516 42.0072 166.804 41.9092Z" fill="#F7EBDA"/>
<path d="M111.695 49.8599C109.203 49.8599 106.792 49.8599 104.349 49.8599C104.349 37.5956 104.349 25.366 104.349 13.0764C106.772 13.0764 109.194 13.0764 111.684 13.0764C111.684 14.9756 111.684 16.8527 111.684 18.733C114.735 13.3545 119.292 12.0841 124.695 12.8678C124.695 15.7183 124.695 18.5276 124.695 21.3432C123.797 21.1884 122.921 20.9798 122.034 20.8913C116.698 20.3667 111.87 23.9819 111.739 30.5675C111.617 36.6949 111.701 42.8255 111.695 48.9561C111.695 49.2342 111.695 49.5154 111.695 49.8599Z" fill="#F7EBDA"/>
<path d="M56.6391 49.8568C54.1816 49.8568 51.7706 49.8568 49.3306 49.8568C49.3306 33.6424 49.3306 17.4627 49.3306 1.24829C51.7764 1.24829 54.1874 1.24829 56.6391 1.24829C56.6391 17.4469 56.6391 33.6266 56.6391 49.8568Z" fill="#F7EBDA"/>
<path d="M130.387 13.0448C132.812 13.0448 135.206 13.0448 137.646 13.0448C137.646 25.3123 137.646 37.5576 137.646 49.8472C135.249 49.8472 132.838 49.8472 130.387 49.8472C130.387 37.6145 130.387 25.366 130.387 13.0448Z" fill="#F7EBDA"/>
<path d="M134.109 7.39462C132.091 7.39146 130.55 5.77665 130.567 3.68151C130.584 1.61481 132.138 0.00316467 134.109 4.5765e-06C136.072 -0.00315552 137.62 1.63061 137.62 3.70679C137.617 5.80826 136.104 7.39778 134.109 7.39462Z" fill="#F7EBDA"/>
<path fill-rule="evenodd" clip-rule="evenodd" d="M219.252 8.94312H256.574L237.915 20.626L219.252 8.94312Z" fill="#F7EBDA"/>
<path fill-rule="evenodd" clip-rule="evenodd" d="M215.591 15.5414L234.23 27.259L234.253 50.6595L215.591 15.5414Z" fill="#F7EBDA"/>
<path fill-rule="evenodd" clip-rule="evenodd" d="M241.361 27.4075L260 15.6868L241.341 50.808L241.361 27.4075Z" fill="#F7EBDA"/>
</g>
<defs>
<clipPath id="clip0_50:5502">
<rect width="260" height="64.5038" fill="white"/>
</clipPath>
</defs>
</svg>
