<?xml version="1.0" encoding="UTF-8"?>
<svg width="22px" height="18px" viewBox="0 0 22 18" version="1.1" xmlns="http://www.w3.org/2000/svg" xmlns:xlink="http://www.w3.org/1999/xlink">
    <!-- Generator: Sketch 59.1 (86144) - https://sketch.com -->
    <title></title>
    <desc>Created with Sketch.</desc>
    <g id="Page-1" stroke="none" stroke-width="1" fill="none" fill-rule="evenodd">
        <path d="M21.2166667,1.23430028 C20.3902778,1.72041143 19.4666667,2.08499505 18.4944444,2.2794393 C17.6923611,1.45305045 16.5743056,0.918327975 15.3347222,0.918327975 C12.9527778,0.918327975 11.0326389,2.83846717 11.0326389,5.2204116 C11.0326389,5.5606893 11.0569444,5.900967 11.1298611,6.2169393 C7.55694446,6.02249505 4.39722225,4.39402275 2.25833334,1.79332815 C1.89374998,2.42527275 1.67500002,3.08152275 1.67500002,3.8836062 C1.67500002,5.36624505 2.42847225,6.67874505 3.5951389,7.45652258 C2.89027779,7.43221718 2.23402779,7.23777293 1.65069446,6.92180062 C1.65069446,9.06068948 3.13333331,10.8106893 5.10208331,11.1995783 C4.7375,11.2968005 4.34861113,11.3454118 3.95972221,11.3454118 C3.69236113,11.3454118 3.425,11.3211059 3.15763887,11.2724951 C3.69236113,12.9738836 5.29652777,14.2377728 7.16805554,14.2620782 C5.70972225,15.4287447 3.83819442,16.3037449 1.82083331,16.3037449 C1.48055556,16.3037449 1.14027775,16.2794395 0.8,16.2308282 C2.69583333,17.446106 4.98055557,17.980828 7.41111111,17.980828 C15.3347222,17.980828 19.6611111,11.418328 19.6611111,5.73082815 L19.6611111,5.17180028 C20.4875,4.5641616 21.2166667,3.81068948 21.8,2.9356893 C21.0222222,3.275967 20.1958333,3.51902257 19.3208333,3.6162447 C20.2201389,3.08152275 20.9006944,2.23082798 21.2166667,1.23430028 Z" id="" fill="#272927"></path>
    </g>
</svg>