<svg width="18" height="18" viewBox="0 0 18 18" fill="none" xmlns="http://www.w3.org/2000/svg">
<path d="M3.78176 11.3746C3.78176 12.4154 2.9316 13.2655 1.89088 13.2655C0.850163 13.2655 0 12.4154 0 11.3746C0 10.3339 0.850163 9.48376 1.89088 9.48376H3.78176V11.3746Z" fill="#272927"/>
<path d="M4.73438 11.3746C4.73438 10.3339 5.58454 9.48376 6.62525 9.48376C7.66597 9.48376 8.51613 10.3339 8.51613 11.3746V16.1092C8.51613 17.1499 7.66597 18 6.62525 18C5.58454 18 4.73438 17.1499 4.73438 16.1092V11.3746Z" fill="#272927"/>
<path d="M6.62525 3.78176C5.58454 3.78176 4.73438 2.9316 4.73438 1.89088C4.73438 0.850163 5.58454 0 6.62525 0C7.66597 0 8.51613 0.850163 8.51613 1.89088V3.78176H6.62525Z" fill="#272927"/>
<path d="M6.62541 4.7345C7.66612 4.7345 8.51628 5.58466 8.51628 6.62538C8.51628 7.66609 7.66612 8.51625 6.62541 8.51625H1.89088C0.850163 8.51625 0 7.66609 0 6.62538C0 5.58466 0.850163 4.7345 1.89088 4.7345H6.62541Z" fill="#272927"/>
<path d="M14.2183 6.62538C14.2183 5.58466 15.0684 4.7345 16.1091 4.7345C17.1499 4.7345 18 5.58466 18 6.62538C18 7.66609 17.1499 8.51625 16.1091 8.51625H14.2183V6.62538Z" fill="#272927"/>
<path d="M13.2656 6.62541C13.2656 7.66612 12.4155 8.51628 11.3748 8.51628C10.334 8.51628 9.48389 7.66612 9.48389 6.62541V1.89088C9.48389 0.850163 10.334 0 11.3748 0C12.4155 0 13.2656 0.850163 13.2656 1.89088V6.62541Z" fill="#272927"/>
<path d="M11.3748 14.2183C12.4155 14.2183 13.2656 15.0684 13.2656 16.1091C13.2656 17.1499 12.4155 18 11.3748 18C10.334 18 9.48389 17.1499 9.48389 16.1091V14.2183H11.3748Z" fill="#272927"/>
<path d="M11.3748 13.2655C10.334 13.2655 9.48389 12.4154 9.48389 11.3746C9.48389 10.3339 10.334 9.48376 11.3748 9.48376H16.1093C17.15 9.48376 18.0002 10.3339 18.0002 11.3746C18.0002 12.4154 17.15 13.2655 16.1093 13.2655H11.3748Z" fill="#272927"/>
</svg>
